<svg width="30" height="34" viewBox="0 0 30 34" fill="none" xmlns="http://www.w3.org/2000/svg">
<g clip-path="url(#clip0_438_11268)">
<path d="M14.0109 16.2285L0.125 30.7768C0.280937 31.3294 0.561162 31.839 0.944252 32.2667C1.32734 32.6945 1.80316 33.0289 2.33532 33.2446C2.86748 33.4602 3.44191 33.5514 4.01469 33.511C4.58746 33.4706 5.14343 33.2998 5.64008 33.0116L21.2643 24.1131L14.0109 16.2285Z" fill="#EA4335"/>
<path d="M28.0511 13.7557L21.2947 9.88574L13.6895 16.5596L21.3256 24.0924L28.0306 20.2639C28.6246 19.9528 29.1221 19.4852 29.4693 18.9116C29.8164 18.3379 29.9999 17.6802 29.9999 17.0097C29.9999 16.3393 29.8164 15.6816 29.4693 15.1079C29.1221 14.5343 28.6246 14.0666 28.0306 13.7556H28.0514L28.0511 13.7557Z" fill="#FBBC04"/>
<path d="M0.124258 3.17041C0.040325 3.4807 -0.00145638 3.80088 3.87462e-05 4.12232V29.8247C0.000908961 30.146 0.0426502 30.4659 0.124258 30.7767L14.4862 16.601L0.124258 3.17041Z" fill="#4285F4"/>
<path d="M14.1144 16.9735L21.2954 9.88567L5.69187 0.945671C5.1048 0.601852 4.4371 0.419771 3.75676 0.417976C2.06844 0.414695 0.584141 1.53524 0.125 3.16005L14.1144 16.9735Z" fill="#34A853"/>
</g>
<defs>
<clipPath id="clip0_438_11268">
<rect width="30" height="33.1641" fill="white" transform="translate(0 0.417969)"/>
</clipPath>
</defs>
</svg>
