<svg width="32" height="32" viewBox="0 0 32 32" fill="none" xmlns="http://www.w3.org/2000/svg">
<path d="M18.6673 15.9997L16.0007 18.6663L13.334 15.9997L16.0007 13.333L18.6673 15.9997ZM16.0007 7.99967L18.8273 10.8263L22.1607 7.49301L16.0007 1.33301L9.84065 7.49301L13.174 10.8263L16.0007 7.99967ZM8.00065 15.9997L10.8273 13.173L7.49398 9.83967L1.33398 15.9997L7.49398 22.1597L10.8273 18.8263L8.00065 15.9997ZM24.0007 15.9997L21.174 18.8263L24.5073 22.1597L30.6673 15.9997L24.5073 9.83967L21.174 13.173L24.0007 15.9997ZM16.0007 23.9997L13.174 21.173L9.84065 24.5063L16.0007 30.6663L22.1607 24.5063L18.8273 21.173L16.0007 23.9997Z" fill="white"/>
</svg>
