<svg width="20" height="21" viewBox="0 0 20 21" fill="none" xmlns="http://www.w3.org/2000/svg">
<mask id="mask0_438_11246" style="mask-type:luminance" maskUnits="userSpaceOnUse" x="0" y="1" width="20" height="19">
<path d="M9.99936 18.8332C11.0939 18.8346 12.178 18.6197 13.1892 18.2008C14.2004 17.7819 15.1189 17.1673 15.8919 16.3923C16.6668 15.6194 17.2814 14.7009 17.7003 13.6897C18.1192 12.6784 18.3341 11.5944 18.3327 10.4998C18.3341 9.40529 18.1192 8.32125 17.7003 7.31002C17.2814 6.29879 16.6668 5.38031 15.8919 4.60734C15.1189 3.83236 14.2004 3.21776 13.1892 2.79888C12.178 2.38 11.0939 2.16509 9.99936 2.16651C8.9048 2.16512 7.82077 2.38003 6.80953 2.79891C5.7983 3.21779 4.87982 3.83237 4.10686 4.60734C3.33189 5.38031 2.7173 6.29879 2.29842 7.31002C1.87954 8.32125 1.66463 9.40529 1.66602 10.4998C1.6646 11.5944 1.87951 12.6784 2.29839 13.6897C2.71727 14.7009 3.33187 15.6194 4.10686 16.3923C4.87982 17.1673 5.7983 17.7819 6.80953 18.2008C7.82077 18.6197 8.9048 18.8346 9.99936 18.8332Z" fill="white" stroke="white" stroke-width="2" stroke-linejoin="round"/>
<path d="M6.66602 10.5L9.16602 13L14.166 8" stroke="black" stroke-width="2" stroke-linecap="round" stroke-linejoin="round"/>
</mask>
<g mask="url(#mask0_438_11246)">
<path d="M0 0.5H20V20.5H0V0.5Z" fill="#009FE3"/>
</g>
</svg>
