<svg width="20" height="21" viewBox="0 0 20 21" fill="none" xmlns="http://www.w3.org/2000/svg">
<mask id="mask0_438_11214" style="mask-type:luminance" maskUnits="userSpaceOnUse" x="0" y="1" width="20" height="19">
<path d="M9.99936 18.8334C11.0939 18.8348 12.178 18.6199 13.1892 18.2011C14.2004 17.7822 15.1189 17.1676 15.8919 16.3926C16.6668 15.6196 17.2814 14.7012 17.7003 13.6899C18.1192 12.6787 18.3341 11.5946 18.3327 10.5001C18.3341 9.40554 18.1192 8.3215 17.7003 7.31027C17.2814 6.29904 16.6668 5.38055 15.8919 4.60759C15.1189 3.8326 14.2004 3.218 13.1892 2.79912C12.178 2.38024 11.0939 2.16534 9.99936 2.16676C8.9048 2.16536 7.82077 2.38028 6.80953 2.79916C5.7983 3.21804 4.87982 3.83262 4.10686 4.60759C3.33189 5.38055 2.7173 6.29904 2.29842 7.31027C1.87954 8.3215 1.66463 9.40554 1.66602 10.5001C1.6646 11.5946 1.87951 12.6787 2.29839 13.6899C2.71727 14.7012 3.33187 15.6196 4.10686 16.3926C4.87982 17.1676 5.7983 17.7821 6.80953 18.201C7.82077 18.6199 8.9048 18.8348 9.99936 18.8334Z" fill="white" stroke="white" stroke-width="2" stroke-linejoin="round"/>
<path d="M6.66602 10.5L9.16602 13L14.166 8" stroke="black" stroke-width="2" stroke-linecap="round" stroke-linejoin="round"/>
</mask>
<g mask="url(#mask0_438_11214)">
<path d="M0 0.5H20V20.5H0V0.5Z" fill="#F3CE32"/>
</g>
</svg>
