<svg width="30" height="30" viewBox="0 0 30 30" fill="none" xmlns="http://www.w3.org/2000/svg">
<path d="M21.312 25.35C20.087 26.5375 18.7495 26.35 17.462 25.7875C16.0995 25.2125 14.8495 25.1875 13.412 25.7875C11.612 26.5625 10.662 26.3375 9.58697 25.35C3.48697 19.0625 4.38697 9.4875 11.312 9.1375C12.9995 9.225 14.1745 10.0625 15.162 10.1375C16.637 9.8375 18.0495 8.975 19.6245 9.0875C21.512 9.2375 22.937 9.9875 23.8745 11.3375C19.9745 13.675 20.8995 18.8125 24.4745 20.25C23.762 22.125 22.837 23.9875 21.2995 25.3625L21.312 25.35ZM15.037 9.0625C14.8495 6.275 17.112 3.975 19.712 3.75C20.0745 6.975 16.787 9.375 15.037 9.0625Z" fill="black"/>
</svg>
