<svg width="32" height="32" viewBox="0 0 32 32" fill="none" xmlns="http://www.w3.org/2000/svg">
<path d="M16.0007 22.6663C16.7079 22.6663 17.3862 22.3854 17.8863 21.8853C18.3864 21.3852 18.6673 20.7069 18.6673 19.9997C18.6673 19.2924 18.3864 18.6142 17.8863 18.1141C17.3862 17.614 16.7079 17.333 16.0007 17.333C15.2934 17.333 14.6151 17.614 14.115 18.1141C13.6149 18.6142 13.334 19.2924 13.334 19.9997C13.334 20.7069 13.6149 21.3852 14.115 21.8853C14.6151 22.3854 15.2934 22.6663 16.0007 22.6663ZM24.0007 10.6663C24.7079 10.6663 25.3862 10.9473 25.8863 11.4474C26.3864 11.9475 26.6673 12.6258 26.6673 13.333V26.6663C26.6673 27.3736 26.3864 28.0519 25.8863 28.552C25.3862 29.0521 24.7079 29.333 24.0007 29.333H8.00065C7.29341 29.333 6.61513 29.0521 6.11503 28.552C5.61494 28.0519 5.33398 27.3736 5.33398 26.6663V13.333C5.33398 12.6258 5.61494 11.9475 6.11503 11.4474C6.61513 10.9473 7.29341 10.6663 8.00065 10.6663H9.33398V7.99967C9.33398 6.23156 10.0364 4.53587 11.2866 3.28563C12.5368 2.03539 14.2325 1.33301 16.0007 1.33301C16.8761 1.33301 17.743 1.50545 18.5519 1.84048C19.3607 2.17551 20.0956 2.66657 20.7147 3.28563C21.3338 3.90469 21.8248 4.63961 22.1598 5.44845C22.4949 6.25729 22.6673 7.1242 22.6673 7.99967V10.6663H24.0007ZM16.0007 3.99967C14.9398 3.99967 13.9224 4.4211 13.1722 5.17125C12.4221 5.92139 12.0007 6.93881 12.0007 7.99967V10.6663H20.0007V7.99967C20.0007 6.93881 19.5792 5.92139 18.8291 5.17125C18.0789 4.4211 17.0615 3.99967 16.0007 3.99967Z" fill="white"/>
</svg>
