<svg width="25" height="25" viewBox="0 0 25 25" fill="none" xmlns="http://www.w3.org/2000/svg">
<path d="M21.3229 17.3828C20.7594 16.4062 19.9216 13.6846 19.9216 10.1562C19.9216 8.18785 19.1396 6.30006 17.7477 4.90819C16.3559 3.51632 14.4681 2.73438 12.4997 2.73438C10.5313 2.73438 8.64349 3.51632 7.25162 4.90819C5.85975 6.30006 5.07781 8.18785 5.07781 10.1562C5.07781 13.6846 4.23894 16.4062 3.67546 17.3779C3.57152 17.556 3.51639 17.7583 3.51563 17.9644C3.51487 18.1706 3.56851 18.3733 3.67114 18.5521C3.77376 18.7309 3.92174 18.8795 4.10013 18.9828C4.27853 19.0861 4.48102 19.1406 4.68718 19.1406H9.00652C9.10399 19.9988 9.51397 20.7911 10.1582 21.3663C10.8025 21.9415 11.636 22.2595 12.4997 22.2595C13.3634 22.2595 14.1969 21.9415 14.8411 21.3663C15.4854 20.7911 15.8954 19.9988 15.9928 19.1406H20.3122C20.5175 19.1399 20.7191 19.0852 20.8967 18.9821C21.0742 18.8789 21.2216 18.7309 21.324 18.5529C21.4263 18.3749 21.4801 18.1731 21.4799 17.9677C21.4797 17.7624 21.4256 17.5607 21.3229 17.3828ZM12.4997 21.4844C11.8422 21.4843 11.2068 21.2473 10.7098 20.8169C10.2128 20.3865 9.88755 19.7914 9.79363 19.1406H15.2057C15.1118 19.7914 14.7866 20.3865 14.2896 20.8169C13.7926 21.2473 13.1572 21.4843 12.4997 21.4844ZM20.6491 18.1641C20.6157 18.2237 20.5669 18.2733 20.5078 18.3076C20.4487 18.342 20.3815 18.3599 20.3132 18.3594H4.68718C4.61883 18.3599 4.5516 18.342 4.49251 18.3076C4.43342 18.2733 4.38463 18.2237 4.35124 18.1641C4.31696 18.1047 4.29891 18.0373 4.29891 17.9688C4.29891 17.9002 4.31696 17.8328 4.35124 17.7734C5.07781 16.5205 5.85906 13.6055 5.85906 10.1562C5.85906 8.39505 6.55869 6.70598 7.80405 5.46062C9.04941 4.21526 10.7385 3.51562 12.4997 3.51562C14.2609 3.51562 15.95 4.21526 17.1953 5.46062C18.4407 6.70598 19.1403 8.39505 19.1403 10.1562C19.1403 13.6045 19.9216 16.5205 20.6481 17.7734C20.6826 17.8327 20.7008 17.9001 20.7009 17.9686C20.7011 18.0372 20.6832 18.1046 20.6491 18.1641Z" fill="white"/>
</svg>
