<svg width="25" height="25" viewBox="0 0 25 25" fill="none" xmlns="http://www.w3.org/2000/svg">
<path d="M12.4994 2.5C12.6651 2.5 12.8241 2.56585 12.9413 2.68306C13.0585 2.80027 13.1244 2.95924 13.1244 3.125V4.375C13.1244 4.54076 13.0585 4.69973 12.9413 4.81694C12.8241 4.93415 12.6651 5 12.4994 5C12.3336 5 12.1746 4.93415 12.0574 4.81694C11.9402 4.69973 11.8744 4.54076 11.8744 4.375V3.125C11.8744 2.95924 11.9402 2.80027 12.0574 2.68306C12.1746 2.56585 12.3336 2.5 12.4994 2.5ZM12.4994 17.5C13.8255 17.5 15.0972 16.9732 16.0349 16.0355C16.9726 15.0979 17.4994 13.8261 17.4994 12.5C17.4994 11.1739 16.9726 9.90215 16.0349 8.96447C15.0972 8.02678 13.8255 7.5 12.4994 7.5C11.1733 7.5 9.90152 8.02678 8.96384 8.96447C8.02616 9.90215 7.49937 11.1739 7.49937 12.5C7.49937 13.8261 8.02616 15.0979 8.96384 16.0355C9.90152 16.9732 11.1733 17.5 12.4994 17.5ZM12.4994 16.25C11.5048 16.25 10.551 15.8549 9.84772 15.1517C9.14446 14.4484 8.74937 13.4946 8.74937 12.5C8.74937 11.5054 9.14446 10.5516 9.84772 9.84835C10.551 9.14509 11.5048 8.75 12.4994 8.75C13.4939 8.75 14.4478 9.14509 15.151 9.84835C15.8543 10.5516 16.2494 11.5054 16.2494 12.5C16.2494 13.4946 15.8543 14.4484 15.151 15.1517C14.4478 15.8549 13.4939 16.25 12.4994 16.25ZM21.8744 13.125C22.0401 13.125 22.1991 13.0592 22.3163 12.9419C22.4335 12.8247 22.4994 12.6658 22.4994 12.5C22.4994 12.3342 22.4335 12.1753 22.3163 12.0581C22.1991 11.9408 22.0401 11.875 21.8744 11.875H20.6244C20.4586 11.875 20.2996 11.9408 20.1824 12.0581C20.0652 12.1753 19.9994 12.3342 19.9994 12.5C19.9994 12.6658 20.0652 12.8247 20.1824 12.9419C20.2996 13.0592 20.4586 13.125 20.6244 13.125H21.8744ZM12.4994 20C12.6651 20 12.8241 20.0658 12.9413 20.1831C13.0585 20.3003 13.1244 20.4592 13.1244 20.625V21.875C13.1244 22.0408 13.0585 22.1997 12.9413 22.3169C12.8241 22.4342 12.6651 22.5 12.4994 22.5C12.3336 22.5 12.1746 22.4342 12.0574 22.3169C11.9402 22.1997 11.8744 22.0408 11.8744 21.875V20.625C11.8744 20.4592 11.9402 20.3003 12.0574 20.1831C12.1746 20.0658 12.3336 20 12.4994 20ZM4.37437 13.125C4.54014 13.125 4.69911 13.0592 4.81632 12.9419C4.93353 12.8247 4.99937 12.6658 4.99937 12.5C4.99937 12.3342 4.93353 12.1753 4.81632 12.0581C4.69911 11.9408 4.54014 11.875 4.37437 11.875H3.07812C2.91236 11.875 2.75339 11.9408 2.63618 12.0581C2.51897 12.1753 2.45313 12.3342 2.45312 12.5C2.45313 12.6658 2.51897 12.8247 2.63618 12.9419C2.75339 13.0592 2.91236 13.125 3.07812 13.125H4.37437ZM5.18187 5.1825C5.23993 5.1243 5.3089 5.07812 5.38483 5.04661C5.46076 5.0151 5.54217 4.99888 5.62437 4.99888C5.70658 4.99888 5.78799 5.0151 5.86392 5.04661C5.93985 5.07812 6.00882 5.1243 6.06687 5.1825L7.31687 6.4325C7.43423 6.54986 7.50016 6.70903 7.50016 6.875C7.50016 7.04097 7.43423 7.20014 7.31687 7.3175C7.19952 7.43486 7.04034 7.50079 6.87437 7.50079C6.70841 7.50079 6.54923 7.43486 6.43187 7.3175L5.18187 6.0675C5.12367 6.00944 5.07749 5.94047 5.04598 5.86454C5.01448 5.78861 4.99826 5.70721 4.99826 5.625C4.99826 5.54279 5.01448 5.46139 5.04598 5.38546C5.07749 5.30953 5.12367 5.24056 5.18187 5.1825ZM6.06687 19.8175C5.94952 19.9349 5.79034 20.0008 5.62437 20.0008C5.45841 20.0008 5.29923 19.9349 5.18187 19.8175C5.06452 19.7001 4.99859 19.541 4.99859 19.375C4.99859 19.209 5.06452 19.0499 5.18187 18.9325L6.43187 17.6825C6.54923 17.5651 6.70841 17.4992 6.87437 17.4992C7.04034 17.4992 7.19952 17.5651 7.31687 17.6825C7.43423 17.7999 7.50016 17.959 7.50016 18.125C7.50016 18.291 7.43423 18.4501 7.31687 18.5675L6.06687 19.8175ZM19.8169 5.1825C19.7588 5.1243 19.6898 5.07812 19.6139 5.04661C19.538 5.0151 19.4566 4.99888 19.3744 4.99888C19.2922 4.99888 19.2108 5.0151 19.1348 5.04661C19.0589 5.07812 18.9899 5.1243 18.9319 5.1825L17.6819 6.4325C17.5645 6.54986 17.4986 6.70903 17.4986 6.875C17.4986 7.04097 17.5645 7.20014 17.6819 7.3175C17.7992 7.43486 17.9584 7.50079 18.1244 7.50079C18.2903 7.50079 18.4495 7.43486 18.5669 7.3175L19.8169 6.0675C19.8751 6.00944 19.9213 5.94047 19.9528 5.86454C19.9843 5.78861 20.0005 5.70721 20.0005 5.625C20.0005 5.54279 19.9843 5.46139 19.9528 5.38546C19.9213 5.30953 19.8751 5.24056 19.8169 5.1825ZM18.9319 19.8175C19.0492 19.9349 19.2084 20.0008 19.3744 20.0008C19.5403 20.0008 19.6995 19.9349 19.8169 19.8175C19.9342 19.7001 20.0002 19.541 20.0002 19.375C20.0002 19.209 19.9342 19.0499 19.8169 18.9325L18.5669 17.6825C18.4495 17.5651 18.2903 17.4992 18.1244 17.4992C17.9584 17.4992 17.7992 17.5651 17.6819 17.6825C17.5645 17.7999 17.4986 17.959 17.4986 18.125C17.4986 18.291 17.5645 18.4501 17.6819 18.5675L18.9319 19.8175Z" fill="white"/>
</svg>
