<svg width="32" height="32" viewBox="0 0 32 32" fill="none" xmlns="http://www.w3.org/2000/svg">
<path d="M5.33333 6.4H8V25.6H5.33333V6.4ZM9.33333 6.4H10.6667V25.6H9.33333V6.4ZM12 6.4H16V25.6H12V6.4ZM17.3333 6.4H18.6667V25.6H17.3333V6.4ZM21.3333 6.4H24V25.6H21.3333V6.4ZM25.3333 6.4H26.6667V25.6H25.3333V6.4ZM2.66667 3.2V9.6H0V3.2C0 2.35131 0.280952 1.53737 0.781049 0.937258C1.28115 0.337142 1.95942 0 2.66667 0H8V3.2H2.66667ZM29.3333 0C30.0406 0 30.7189 0.337142 31.219 0.937258C31.719 1.53737 32 2.35131 32 3.2V9.6H29.3333V3.2H24V0H29.3333ZM2.66667 22.4V28.8H8V32H2.66667C1.95942 32 1.28115 31.6629 0.781049 31.0627C0.280952 30.4626 0 29.6487 0 28.8V22.4H2.66667ZM29.3333 28.8V22.4H32V28.8C32 29.6487 31.719 30.4626 31.219 31.0627C30.7189 31.6629 30.0406 32 29.3333 32H24V28.8H29.3333Z" fill="white"/>
</svg>
